<?xml version="1.0" encoding="iso-8859-1"?>
<!-- Generator: Adobe Illustrator 19.0.0, SVG Export Plug-In . SVG Version: 6.00 Build 0)  -->
<svg version="1.1" id="Layer_1" xmlns="http://www.w3.org/2000/svg" xmlns:xlink="http://www.w3.org/1999/xlink" x="0px" y="0px"
	 viewBox="0 0 512 512" style="enable-background:new 0 0 512 512;" xml:space="preserve">
<path style="fill:#EAFFFF;" d="M439.242,471.579H72.758c-23.812,0-43.116-19.304-43.116-43.116V72.758
	c0-23.812,19.304-43.116,43.116-43.116h366.484c23.812,0,43.116,19.304,43.116,43.116v355.705
	C482.358,452.275,463.054,471.579,439.242,471.579z"/>
<path style="fill:#C5EAD4;" d="M385.347,72.758L385.347,72.758c0,11.906-9.651,21.558-21.558,21.558h-43.116
	c-11.906,0-21.558-9.651-21.558-21.558l0,0c0-11.906,9.651-21.558,21.558-21.558h43.116C375.696,51.2,385.347,60.851,385.347,72.758
	z M169.768,8.084H61.979c-11.906,0-21.558,9.651-21.558,21.558l0,0c0,3.931,1.069,7.606,2.907,10.779H29.642
	c-11.906,0-21.558,9.651-21.558,21.558l0,0c0,11.906,9.651,21.558,21.558,21.558h43.116c11.906,0,21.558-9.651,21.558-21.558l0,0
	c0-3.931-1.069-7.606-2.907-10.779h78.36c11.906,0,21.558-9.651,21.558-21.558l0,0C191.326,17.736,181.675,8.084,169.768,8.084z"/>
<path style="fill:#FFFF81;" d="M412.295,72.758c50.601,0,91.621,41.02,91.621,91.621S462.895,256,412.295,256
	s-91.621-41.02-91.621-91.621S361.694,72.758,412.295,72.758z"/>
<path style="fill:#FFF145;" d="M412.295,115.874c26.789,0,48.505,21.716,48.505,48.505s-21.716,48.505-48.505,48.505
	s-48.505-21.716-48.505-48.505S385.506,115.874,412.295,115.874z"/>
<path style="fill:#8E9A9B;" d="M493.137,299.116v204.8H385.347V288.337h97.011C488.311,288.337,493.137,293.163,493.137,299.116z
	 M342.232,191.326h-64.674v53.895h75.453v-43.116C353.01,196.152,348.185,191.326,342.232,191.326z"/>
<path style="fill:#A9B9BB;" d="M202.105,126.653v32.337h-32.337v-32.337c0-5.953,4.826-10.779,10.779-10.779h10.779
	C197.28,115.874,202.105,120.699,202.105,126.653z M83.537,212.884v291.032h97.011V202.105H94.316
	C88.363,202.105,83.537,206.931,83.537,212.884z M385.347,234.442H277.558v269.474h118.568V245.221
	C396.126,239.268,391.301,234.442,385.347,234.442z"/>
<path style="fill:#C7D7D8;" d="M115.874,450.021v53.895H18.863v-53.895c0-5.953,4.826-10.779,10.779-10.779h75.453
	C111.048,439.242,115.874,444.068,115.874,450.021z M277.558,148.211H169.768v355.705h118.568V158.989
	C288.337,153.036,283.511,148.211,277.558,148.211z"/>
<path style="fill:#A9C253;" d="M409.985,486.978v16.938H223.663v-16.938c0-25.08,13.638-46.962,33.892-58.675
	c-0.003-0.204-0.015-0.404-0.015-0.609c0-23.387,18.959-42.346,42.346-42.346c20.486,0,37.573,14.548,41.497,33.877h0.848
	C379.651,419.224,409.985,449.559,409.985,486.978z"/>
<path style="fill:#98B629;" d="M369.321,503.916H223.663v-16.938c0-24.349,12.855-45.681,32.139-57.623
	c2.798-0.582,5.697-0.891,8.667-0.891c20.486,0,37.573,14.548,41.497,33.877h0.848C334.954,462.34,359.081,479.495,369.321,503.916z
	"/>
<path d="M0,61.979c0-16.345,13.297-29.642,29.642-29.642h2.819c-0.082-0.895-0.124-1.794-0.124-2.695
	C32.337,13.297,45.634,0,61.979,0h107.789c16.345,0,29.642,13.297,29.642,29.642s-13.297,29.642-29.642,29.642h-43.116
	c-4.465,0-8.084-3.62-8.084-8.084s3.62-8.084,8.084-8.084h43.116c7.43,0,13.474-6.044,13.474-13.474s-6.044-13.474-13.474-13.474
	H61.979c-7.43,0-13.474,6.044-13.474,13.474c0,2.38,0.612,4.644,1.819,6.728c1.449,2.501,1.452,5.585,0.008,8.089
	c-1.443,2.504-4.114,4.046-7.004,4.046H29.642c-7.43,0-13.474,6.044-13.474,13.474c0,7.43,6.044,13.474,13.474,13.474h43.116
	c7.43,0,13.474-6.044,13.474-13.474c0-2.38-0.612-4.644-1.819-6.728c-2.238-3.863-0.919-8.81,2.945-11.047
	c3.864-2.237,8.81-0.918,11.047,2.945c2.614,4.514,3.996,9.643,3.996,14.831c0,16.345-13.297,29.642-29.642,29.642H29.642
	C13.297,91.621,0,78.324,0,61.979z M129.347,406.905V234.442c0-4.465-3.62-8.084-8.084-8.084s-8.084,3.62-8.084,8.084v172.463
	c0,4.465,3.62,8.084,8.084,8.084S129.347,411.37,129.347,406.905z M439.242,312.589h-10.779c-4.465,0-8.084,3.62-8.084,8.084
	s3.62,8.084,8.084,8.084h10.779c4.465,0,8.084-3.62,8.084-8.084S443.707,312.589,439.242,312.589z M412.295,204.8
	c-8.039,0-15.802-2.352-22.449-6.802c-3.71-2.482-8.731-1.488-11.214,2.223c-2.483,3.71-1.489,8.732,2.223,11.214
	c9.318,6.237,20.19,9.533,31.442,9.533c31.204,0,56.589-25.385,56.589-56.589s-25.387-56.589-56.591-56.589
	s-56.589,25.386-56.589,56.589c0,4.465,3.62,8.084,8.084,8.084s8.084-3.62,8.084-8.084c0-22.289,18.132-40.421,40.421-40.421
	c22.289,0,40.421,18.132,40.421,40.421S434.583,204.8,412.295,204.8z M312.589,164.379c0,4.465,3.62,8.084,8.084,8.084
	s8.084-3.62,8.084-8.084c0-46.062,37.475-83.537,83.537-83.537s83.537,37.475,83.537,83.537c0,40.557-28.929,75.143-68.785,82.24
	c-4.396,0.783-7.324,4.981-6.542,9.376c0.697,3.917,4.106,6.669,7.949,6.669c0.471,0,0.947-0.042,1.426-0.127
	C477.463,254.065,512,212.784,512,164.379c0-54.978-44.727-99.705-99.705-99.705S312.589,109.401,312.589,164.379z M320.674,102.4
	c4.465,0,8.084-3.62,8.084-8.084s-3.62-8.084-8.084-8.084c-7.43,0-13.474-6.044-13.474-13.474c0-7.43,6.044-13.474,13.474-13.474
	h43.116c2.371,0,4.699,0.622,6.731,1.798c3.864,2.237,8.81,0.916,11.046-2.949c2.236-3.864,0.916-8.81-2.949-11.046
	c-4.49-2.598-9.618-3.971-14.829-3.971h-43.116c-16.345,0-29.642,13.297-29.642,29.642S304.328,102.4,320.674,102.4z
	 M439.242,344.926h-10.779c-4.465,0-8.084,3.62-8.084,8.084c0,4.465,3.62,8.084,8.084,8.084h10.779c4.465,0,8.084-3.62,8.084-8.084
	C447.326,348.546,443.707,344.926,439.242,344.926z M439.242,377.263h-10.779c-4.465,0-8.084,3.62-8.084,8.084
	s3.62,8.084,8.084,8.084h10.779c4.465,0,8.084-3.62,8.084-8.084S443.707,377.263,439.242,377.263z M353.01,258.695
	c-4.465,0-8.084,3.62-8.084,8.084v75.453c0,4.465,3.62,8.084,8.084,8.084c4.465,0,8.084-3.62,8.084-8.084v-75.453
	C361.095,262.314,357.475,258.695,353.01,258.695z M245.221,194.021c-4.465,0-8.084,3.62-8.084,8.084v140.126
	c0,4.465,3.62,8.084,8.084,8.084c4.465,0,8.084-3.62,8.084-8.084V202.105C253.305,197.641,249.686,194.021,245.221,194.021z
	 M512,503.916c0,4.465-3.62,8.084-8.084,8.084H374.568c-4.465,0-8.084-3.62-8.084-8.084s3.62-8.084,8.084-8.084h27.332v-8.854
	c0-32.902-26.767-59.669-59.669-59.669h-0.849c-3.845,0-7.158-2.708-7.923-6.476c-3.223-15.877-17.343-27.401-33.574-27.401
	c-18.892,0-34.262,15.37-34.262,34.262l0.014,0.484c0.045,2.931-1.498,5.656-4.036,7.123
	c-18.415,10.651-29.854,30.453-29.854,51.677v8.854h110.484c4.465,0,8.084,3.62,8.084,8.084s-3.62,8.084-8.084,8.084H8.084
	C3.62,512,0,508.38,0,503.916s3.62-8.084,8.084-8.084h2.695v-45.811c0-10.401,8.463-18.863,18.863-18.863h75.453
	c10.401,0,18.863,8.463,18.863,18.863v45.811h37.726V210.189H94.316c-1.485,0-2.695,1.209-2.695,2.695v194.021
	c0,4.465-3.62,8.084-8.084,8.084s-8.084-3.62-8.084-8.084V212.884c0-10.401,8.463-18.863,18.863-18.863h67.368v-67.368
	c0-10.401,8.463-18.863,18.863-18.863h10.779c10.401,0,18.863,8.463,18.863,18.863v13.474h37.726V83.537
	c0-4.465,3.62-8.084,8.084-8.084c4.465,0,8.084,3.62,8.084,8.084v56.589h13.474c10.401,0,18.863,8.463,18.863,18.863v24.253h45.811
	c10.401,0,18.863,8.463,18.863,18.863v24.253h24.253c10.401,0,18.863,8.463,18.863,18.863v35.032h78.147
	c10.401,0,18.863,8.463,18.863,18.863v196.716h2.695C508.38,495.832,512,499.451,512,503.916z M107.789,450.021
	c0-1.485-1.209-2.695-2.695-2.695H29.642c-1.485,0-2.695,1.209-2.695,2.695v45.811h80.842V450.021z M296.421,226.358h48.505v-24.253
	c0-1.485-1.209-2.695-2.695-2.695h-45.811V226.358z M177.853,140.126h16.168v-13.474c0-1.485-1.209-2.695-2.695-2.695h-10.779
	c-1.485,0-2.695,1.209-2.695,2.695V140.126z M485.053,299.116c0-1.485-1.209-2.695-2.695-2.695h-78.147v110.484
	c0,4.465-3.62,8.084-8.084,8.084c-4.465,0-8.084-3.62-8.084-8.084V245.221c0-1.485-1.209-2.695-2.695-2.695h-88.926V353.01
	c0,4.465-3.62,8.084-8.084,8.084s-8.084-3.62-8.084-8.084V158.989c0-1.485-1.209-2.695-2.695-2.695h-99.705v339.537h37.726v-8.854
	c0-25.446,12.93-49.28,34.032-63.259c2.032-25.956,23.804-46.455,50.274-46.455c21.689,0,40.819,13.99,47.71,34.065
	c39.322,2.763,70.473,35.637,70.473,75.65v8.854h66.985V299.116z"/>
<g>
</g>
<g>
</g>
<g>
</g>
<g>
</g>
<g>
</g>
<g>
</g>
<g>
</g>
<g>
</g>
<g>
</g>
<g>
</g>
<g>
</g>
<g>
</g>
<g>
</g>
<g>
</g>
<g>
</g>
</svg>
